/* XPM */
static char *_9b2f2f5da1f4df1bb5db03685a977725U1bIukF3F4OMEU2[] = {
/* columns rows colors chars-per-pixel */
"64 64 194 2 ",
"   c None",
".  c #ACD5EA",
"X  c #AED6EA",
"o  c #B3D6EA",
"O  c #B3D6EB",
"+  c #B3D7EB",
"@  c #B4D6EA",
"#  c #B4D7EB",
"$  c #B5D7EB",
"%  c #B6D7EB",
"&  c #B1D8EB",
"*  c #B5D8EB",
"=  c #B6D8EB",
"-  c #B7D8EB",
";  c #B7D9EB",
":  c #B5D8EC",
">  c #B5D9ED",
",  c #B6D8EC",
"<  c #B7D8EC",
"1  c #B7D9EC",
"2  c #B8D9EC",
"3  c #B9DAEC",
"4  c #BADAEC",
"5  c #BBDAEC",
"6  c #BBDBEC",
"7  c #BADAED",
"8  c #BBDBED",
"9  c #BCDBED",
"0  c #BDDBED",
"q  c #BCDCED",
"w  c #BDDCED",
"e  c #BEDCED",
"r  c #BFDDED",
"t  c #BFDDEE",
"y  c #BEDDEF",
"u  c #C0DCEC",
"i  c #C1DCEC",
"p  c #C2DEED",
"a  c #C0DDEE",
"s  c #C1DEEE",
"d  c #C2DEEE",
"f  c #C3DEEE",
"g  c #C2DFEE",
"h  c #C3DFEE",
"j  c #C3DFEF",
"k  c #C4DFEE",
"l  c #C4DFEF",
"z  c #C6DFEE",
"x  c #C4E0EF",
"c  c #C5E0EF",
"v  c #C6E0EE",
"b  c #C7E0EE",
"n  c #C6E0EF",
"m  c #C7E0EF",
"M  c #C7E1EF",
"N  c #C8E1EF",
"B  c #CAE2EF",
"V  c #CBE2EF",
"C  c #D0E3EE",
"Z  c #D0E4EF",
"A  c #D4E5EF",
"S  c #D5E5EF",
"D  c #C6E1F0",
"F  c #C7E1F0",
"G  c #C8E1F0",
"H  c #C8E2F0",
"J  c #C9E2F0",
"K  c #CAE2F0",
"L  c #CAE3F0",
"P  c #CAE3F1",
"I  c #CBE3F1",
"U  c #CCE3F0",
"Y  c #CCE3F1",
"T  c #CBE4F1",
"R  c #CDE4F0",
"E  c #CCE4F1",
"W  c #CDE4F1",
"Q  c #CDE5F1",
"!  c #CEE5F1",
"~  c #CFE5F1",
"^  c #CEE5F2",
"/  c #CFE5F2",
"(  c #CFE6F2",
")  c #D0E6F1",
"_  c #D1E6F1",
"`  c #D2E6F0",
"'  c #D3E6F0",
"]  c #D2E6F1",
"[  c #D3E6F1",
"{  c #D3E7F1",
"}  c #D0E6F2",
"|  c #D1E6F2",
" . c #D1E7F2",
".. c #D2E7F2",
"X. c #D3E7F2",
"o. c #D2E7F3",
"O. c #D4E6F0",
"+. c #D4E7F1",
"@. c #D6E7F0",
"#. c #D6E7F1",
"$. c #D3E8F3",
"%. c #D7E8F1",
"&. c #D4E8F2",
"*. c #D5E8F2",
"=. c #D4E8F3",
"-. c #D5E8F3",
";. c #D5E9F3",
":. c #D6E8F2",
">. c #D6E9F3",
",. c #D7E9F3",
"<. c #D7EAF3",
"1. c #D4E9F4",
"2. c #D6E9F4",
"3. c #D6EAF4",
"4. c #D7EAF4",
"5. c #D8E8F1",
"6. c #D9E8F1",
"7. c #D9E9F1",
"8. c #DAE8F0",
"9. c #D8E9F2",
"0. c #D9E9F2",
"q. c #D8E9F3",
"w. c #D8EAF3",
"e. c #D9EAF3",
"r. c #DAEAF2",
"t. c #DBEAF2",
"y. c #DAEAF3",
"u. c #DBEAF3",
"i. c #DAEBF3",
"p. c #DBEBF3",
"a. c #DCE9F0",
"s. c #DCEAF1",
"d. c #DDEAF1",
"f. c #DEEAF0",
"g. c #DFEAF0",
"h. c #DFEBF1",
"j. c #DCEBF2",
"k. c #DDEBF2",
"l. c #DCEBF3",
"z. c #DDEBF3",
"x. c #DEEBF2",
"c. c #DFEBF2",
"v. c #DEEBF3",
"b. c #DFECF2",
"n. c #D9EAF4",
"m. c #D9EBF4",
"M. c #D8EBF5",
"N. c #E9EDEF",
"B. c #EFEFEF",
"V. c #F0F0EF",
"C. c #F1F0EF",
"Z. c #E0EBF1",
"A. c #E1EBF1",
"S. c #E2ECF1",
"D. c #E0ECF2",
"F. c #E1ECF2",
"G. c #E0ECF3",
"H. c #E2ECF2",
"J. c #E3ECF2",
"K. c #E2EDF2",
"L. c #E3EDF2",
"P. c #E3EDF3",
"I. c #E5ECF0",
"U. c #E4EDF1",
"Y. c #E5EDF1",
"T. c #E6EDF1",
"R. c #E7EDF1",
"E. c #E7EEF1",
"W. c #E4EDF2",
"Q. c #E5EDF2",
"!. c #E5EEF2",
"~. c #E7EEF2",
"^. c #E8EDF0",
"/. c #E9EEF0",
"(. c #E8EEF1",
"). c #E9EEF1",
"_. c #EAEEF0",
"`. c #EBEEF0",
"'. c #EAEEF1",
"]. c #EAEFF1",
"[. c #EBEFF1",
"{. c #E8EEF2",
"}. c #ECEFF0",
"|. c #EDEFF0",
" X c #EDEFF1",
".X c #EEEFF0",
"XX c #EFEFF0",
"oX c #EDF0F1",
"OX c #EEF0F0",
"+X c #EFF0F0",
"@X c #EFF0F1",
"#X c gray94",
"$X c #F1F0F0",
"%X c #F1F1F0",
/* pixels */
"                                                                                                                                ",
"                                                                                                                                ",
"                                                                                                                                ",
"                                                                                                                                ",
"                                                                                                                                ",
"                                                                                                                                ",
"                                                                                                                                ",
"                                                                                                                                ",
"                                                                                                                                ",
"                                                                                                                                ",
"                                                                                                                                ",
"                                                                                                                                ",
"                                                                                                                                ",
"                                  #X#X#X#X                                                                                      ",
"                              +X.X+XB.B.#X#X#X                                                                                  ",
"                            E.`..X#X#X#X#XB.#X#X                                                                                ",
"                          `.k.`.+X+X#X#X#X#X+XB.#X                                                                              ",
"                  +X#X#X+XE.2.v..X#XV.#X#X#XV.V..X#X#X                                                                          ",
"                +X+XB.B.#X`.k H P..X+XB.V.#X#X`.E..X#X#X#X                                                                      ",
"                B.B.V.B.V.E.k 6 H ] k.E.`.E.b.! p.`..XB.V.#X                                                                    ",
"              P.`.`..XB.+XV 6 6 A k.b.i.2.:.n 8 H :.P.E.P.P.                                                                    ",
"              p.P.E.P.P.:.6 B k.B.#X#X`.P.p.p.:.k D H Y B a ! E.+X+X                                                            ",
"              #.H ] p.H 6 k :.P.E.A.E.+X+XB.B.B.`.:.n = , n 2.M.p.P.                                                            ",
"            .X`.C , 6 = o n M.2.2.:.:.k..XB.N.P.E.E.:.D H ! H H ! ! H                   +X      #X#X#X#X                        ",
"          E.E.P.P.x o o o 9 ! :.M.M.:.2.P.k.M.2.M.p.H ] ! , % + = =                 P.`.+X+XV.#X.X.XB.V.+X                      ",
"          G.2.2.:.B % o , o % H :.2.:.M.2.] :.2.:.! 6 6 , + o +                   M.E..XB.B.B.N..XV.V.B..XP.                    ",
"          o.! ! x , o o o + o % a H ! ! a 6 H H t , + +                   +X#XV.`.p.E.B.V.B.B.p.p.E.E.I.#.p.P.oX                ",
"              % o   o o + o + % o o = , + o , , + #                     E..X.XV.E.:.j.P.P.A n a D :.#.t t k.`.B..X              ",
"                                  , % o     ,                           b.E.B.B.P.P P P 8 , t ] :.:.:.P $.2.p.P..X              ",
"                                                                        M.P.P.k.2.n = = 8 B P.E.`.E.p.! $.2.2.2.:.a             ",
"                                                                        a ! ] ] D = o 6 ! :.i.M.:.p.] 6 n $.] $.a % ,           ",
"                                                                          , 6 , # + o o = 6 D ! ! D 8 + o 6 , , * o             ",
"                                                                                          = % o + o , ,   o o                   ",
"                                                                                              % ,                               ",
"                                                                        #X#X#X#X                                                ",
"                                                                    `.+XV.+X#X#X#X                                              ",
"                                                                  `.p.N.V.+X#XB.B.                                              ",
"                                                            +X#X#XB.Z p..XV.V.#XB.N.#X#X                                        ",
"                                                            `..XV.`.k a k.E.A.k.#.p.`.B.E.                                      ",
"                                                            E.E.`.] k k.B.`.:.B a x n V a !                                     ",
"                                                          E.k.:.B j ] P.P.E.E.E.`.f.! t 9 a p.P.                                ",
"                                  `.V.B.#X#X            `.E.k.$.H ! 2.2.2.2.E.E.b.P.] ! D 8 a n t                               ",
"                              2.k..X#X#XV..X.X          M.2.] t 6 D D ! ] 1.] ] $.! 8 = = o                                     ",
"                              2.b..X#XV.V.E.M.v.E.        t + . o o . = 6 8 , + 6 , o =                                         ",
"                      +XB.B.P.:.:.b.P.E.P.p.p.`.V.#X#X                                                                          ",
"                    +XoXE.P.:.$.b.p.! H B ! p..X.X+X#X                                                                          ",
"                    j.:.( ! n $.P.E.k.] a ] :.M.A.`.#X#X#X#X                                                                    ",
"                  2.P x = = n 2.2.p.E.P.2.P.`.k.p.P.E.`.#X#X                                                                    ",
"                M.2.B % o o P 2.2.2.i.:.p.`.E.j.2.! ! P.`.`.E.                                                                  ",
"                M.b.Z = o o n $.:.2.] t n $.2.2.:.D 6 D D ! 2.2.                                                                ",
"                  +XN.a o * = = t 6 , # = 6 t t 8 o = o # , t                                                                   ",
"                            o * + o %     o o o , ,                                                                             ",
"                                                                                                                                ",
"                                                                                                                                ",
"                                                                                                                                ",
"                                                                                                                                ",
"                                                                                                                                ",
"                                                                                                                                ",
"                                                                                                                                ",
"                                                                                                                                ",
"                                                                                                                                ",
"                                                                                                                                ",
"                                                                                                                                ",
"                                                                                                                                "
};
